<?xml version="1.0" encoding="UTF-8" ?>
<!DOCTYPE svg PUBLIC "-//W3C//DTD SVG 1.1//EN" "http://www.w3.org/Graphics/SVG/1.1/DTD/svg11.dtd">
<svg width="400pt" height="475pt" viewBox="0 0 400 475" version="1.1" xmlns="http://www.w3.org/2000/svg">
<g id="#ffffffff">
<path fill="#ffffff" opacity="1.00" d=" M 287.47 332.33 C 295.20 329.49 303.89 328.23 311.70 331.58 C 310.45 333.48 309.17 335.37 307.87 337.25 C 301.03 335.77 294.22 334.14 287.47 332.33 Z" />
<path fill="#ffffff" opacity="1.00" d=" M 281.58 336.07 C 288.61 336.37 295.78 337.01 302.36 339.67 C 301.88 341.33 301.38 342.99 300.87 344.65 C 294.29 342.14 288.09 338.76 281.58 336.07 Z" />
<path fill="#ffffff" opacity="1.00" d=" M 297.38 354.08 C 302.53 346.89 309.51 341.26 316.02 335.34 C 316.38 340.10 317.08 344.91 316.62 349.69 C 314.81 356.49 309.17 362.32 301.90 363.03 C 301.10 360.00 296.94 357.26 297.38 354.08 Z" />
<path fill="#ffffff" opacity="1.00" d=" M 80.69 342.97 C 88.19 339.35 96.69 338.07 104.96 339.14 C 109.01 340.31 112.57 342.75 116.26 344.76 C 110.57 343.77 104.90 342.37 99.08 342.46 C 93.43 343.31 88.28 345.93 83.01 348.01 C 82.23 346.33 81.46 344.65 80.69 342.97 Z" />
<path fill="#ffffff" opacity="1.00" d=" M 279.70 340.75 C 286.24 340.44 294.44 342.56 295.72 350.08 C 290.78 346.31 285.35 343.30 279.70 340.75 Z" />
<path fill="#ffffff" opacity="1.00" d=" M 87.35 351.32 C 93.31 346.92 101.00 347.18 108.04 346.57 C 101.85 348.85 96.12 352.12 90.38 355.31 C 89.37 353.98 88.35 352.65 87.35 351.32 Z" />
<path fill="#ffffff" opacity="1.00" d=" M 264.94 359.68 C 268.64 355.11 274.68 355.13 280.05 354.65 C 275.84 358.16 270.38 359.62 264.94 359.68 Z" />
<path fill="#ffffff" opacity="1.00" d=" M 113.46 356.92 C 118.51 359.86 123.33 363.18 128.29 366.29 C 128.00 374.80 126.99 383.90 121.28 390.67 C 114.46 381.94 106.49 373.90 101.20 364.13 C 108.51 369.11 114.58 375.72 122.18 380.30 C 117.70 372.88 109.91 367.57 107.33 359.05 C 113.61 363.77 119.34 369.34 126.30 373.09 C 122.12 367.62 117.19 362.73 113.46 356.92 Z" />
<path fill="#ffffff" opacity="1.00" d=" M 266.24 363.19 C 271.30 361.49 276.44 359.98 281.54 358.39 C 276.47 362.74 270.63 366.11 264.47 368.67 C 264.91 367.30 265.80 364.56 266.24 363.19 Z" />
<path fill="#ffffff" opacity="1.00" d=" M 283.70 360.59 C 278.59 366.49 272.31 371.24 266.49 376.40 C 265.92 374.96 265.34 373.52 264.78 372.09 C 271.24 368.51 277.29 364.25 283.70 360.59 Z" />
<path fill="#ffffff" opacity="1.00" d=" M 269.00 382.10 C 274.15 375.25 280.33 369.27 286.55 363.41 C 289.19 365.80 291.82 368.22 294.52 370.56 C 293.39 375.02 292.52 380.60 288.04 383.05 C 282.08 386.30 274.87 384.77 269.00 382.10 Z" />
<path fill="#ffffff" opacity="1.00" d=" M 183.15 372.12 C 190.17 366.91 199.59 366.94 207.83 368.22 C 219.00 372.44 226.43 383.53 226.56 395.45 C 210.06 398.05 193.25 396.83 176.63 396.85 C 165.63 408.37 170.72 425.29 172.75 439.34 C 166.57 426.57 163.56 411.98 165.82 397.88 C 169.25 388.10 173.98 377.77 183.15 372.12 Z" />
<path fill="#ffffff" opacity="1.00" d=" M 90.76 369.98 C 91.45 370.00 92.83 370.05 93.52 370.07 C 93.06 373.49 92.63 376.97 92.01 380.39 C 91.69 377.79 91.07 372.58 90.76 369.98 Z" />
<path fill="#ffffff" opacity="1.00" d=" M 308.18 373.25 C 310.99 373.11 308.17 377.47 306.45 376.21 C 305.69 375.00 307.03 373.55 308.18 373.25 Z" />
<path fill="#ffffff" opacity="1.00" d=" M 84.66 373.85 C 85.43 374.02 86.98 374.36 87.76 374.52 C 87.61 378.33 87.45 382.16 87.21 385.97 C 86.35 385.98 84.65 385.99 83.80 385.99 C 84.08 381.93 84.33 377.89 84.66 373.85 Z" />
<path fill="#ffffff" opacity="1.00" d=" M 306.54 381.34 C 307.99 378.16 310.55 375.77 313.39 373.84 C 311.56 376.72 309.26 379.27 306.54 381.34 Z" />
<path fill="#ffffff" opacity="1.00" d=" M 314.40 378.48 C 312.77 380.19 311.04 381.81 309.24 383.34 C 310.94 381.69 312.66 380.07 314.40 378.48 Z" />
<path fill="#ffffff" opacity="1.00" d=" M 311.27 385.40 C 312.95 383.61 314.81 382.02 316.80 380.59 C 314.98 382.22 313.13 383.82 311.27 385.40 Z" />
<path fill="#ffffff" opacity="1.00" d=" M 75.51 396.83 C 75.56 391.42 74.26 385.24 78.35 380.92 C 78.34 386.32 79.04 392.28 75.51 396.83 Z" />
<path fill="#ffffff" opacity="1.00" d=" M 313.69 389.27 C 315.13 386.78 317.10 384.66 319.30 382.82 C 317.74 385.22 315.86 387.40 313.69 389.27 Z" />
<path fill="#ffffff" opacity="1.00" d=" M 316.46 390.69 C 318.08 388.53 319.94 386.55 322.05 384.86 C 320.25 386.86 318.36 388.79 316.46 390.69 Z" />
<path fill="#ffffff" opacity="1.00" d=" M 318.73 392.87 C 320.54 390.87 322.60 389.11 324.85 387.62 C 322.84 389.41 320.80 391.16 318.73 392.87 Z" />
<path fill="#ffffff" opacity="1.00" d=" M 321.61 394.77 C 323.32 393.31 325.16 392.02 327.10 390.88 C 325.37 392.32 323.53 393.61 321.61 394.77 Z" />
<path fill="#ffffff" opacity="1.00" d=" M 67.58 406.14 C 66.73 401.08 67.27 395.90 69.69 391.39 C 70.55 396.47 71.72 402.15 67.58 406.14 Z" />
<path fill="#ffffff" opacity="1.00" d=" M 323.66 398.34 C 325.16 396.08 327.08 394.16 329.34 392.66 C 327.84 394.91 325.91 396.84 323.66 398.34 Z" />
<path fill="#ffffff" opacity="1.00" d=" M 327.03 400.32 C 328.24 398.38 329.65 396.57 331.20 394.90 C 329.97 396.82 328.59 398.66 327.03 400.32 Z" />
<path fill="#ffffff" opacity="1.00" d=" M 328.88 403.12 C 330.19 401.61 331.61 400.19 333.12 398.88 C 331.81 400.39 330.39 401.81 328.88 403.12 Z" />
<path fill="#ffffff" opacity="1.00" d=" M 59.62 413.56 C 58.05 409.33 58.20 404.66 61.27 401.12 C 60.93 405.28 60.64 409.49 59.62 413.56 Z" />
<path fill="#ffffff" opacity="1.00" d=" M 330.81 404.89 C 332.53 403.82 334.31 402.85 336.13 401.96 C 334.40 403.01 332.61 403.98 330.81 404.89 Z" />
<path fill="#ffffff" opacity="1.00" d=" M 333.88 408.12 C 335.19 406.61 336.61 405.19 338.12 403.88 C 336.81 405.39 335.39 406.81 333.88 408.12 Z" />
<path fill="#ffffff" opacity="1.00" d=" M 195.59 404.80 C 198.76 406.77 201.46 409.52 202.52 413.19 C 200.04 410.53 197.60 407.83 195.59 404.80 Z" />
<path fill="#ffffff" opacity="1.00" d=" M 338.27 407.54 C 339.94 407.93 338.86 410.55 337.37 410.10 C 335.69 409.69 336.89 407.27 338.27 407.54 Z" />
<path fill="#ffffff" opacity="1.00" d=" M 337.27 412.75 C 339.35 411.81 341.38 410.58 343.69 410.32 C 346.29 412.02 348.69 414.01 351.12 415.95 C 350.97 417.78 350.68 421.44 350.53 423.27 C 343.41 424.28 338.97 418.76 337.27 412.75 M 339.52 413.38 C 340.18 418.62 344.48 421.90 349.53 422.42 C 346.76 418.84 343.51 415.58 339.52 413.38 Z" />
<path fill="#ffffff" opacity="1.00" d=" M 193.95 412.05 C 198.22 414.47 200.49 418.97 202.58 423.23 C 198.23 420.85 194.89 417.02 193.95 412.05 Z" />
<path fill="#ffffff" opacity="1.00" d=" M 193.60 423.44 C 197.51 427.05 201.24 431.20 202.33 436.59 C 197.88 433.40 193.33 429.59 193.60 423.44 Z" />
<path fill="#ffffff" opacity="1.00" d=" M 194.60 438.44 C 198.48 441.49 202.34 445.04 202.15 450.54 C 198.23 447.57 195.20 443.43 194.60 438.44 Z" />
<path fill="#ffffff" opacity="1.00" d=" M 194.91 451.38 C 198.03 454.36 200.08 458.23 201.13 462.41 C 198.37 459.17 195.14 455.98 194.91 451.38 Z" />
</g>
<g id="#000000ff">
<path fill="#000000" opacity="1.00" d=" M 194.31 96.03 C 196.07 64.52 193.35 32.75 197.84 1.40 C 200.14 12.13 199.82 23.15 200.75 34.03 C 202.62 56.32 201.54 78.70 202.64 101.02 C 203.60 127.90 202.37 154.80 203.42 181.68 C 204.41 202.49 203.86 223.32 204.07 244.14 C 246.44 198.83 288.19 152.93 331.55 108.56 C 339.66 100.18 347.27 90.88 357.36 84.79 C 355.47 88.00 353.22 90.97 350.95 93.91 C 332.56 116.74 312.69 138.31 293.42 160.38 C 264.94 192.73 236.22 224.86 207.09 256.61 C 231.13 281.97 254.69 307.77 278.70 333.16 C 288.67 324.92 304.35 319.93 315.62 328.40 C 321.98 334.25 321.87 343.51 322.12 351.47 C 324.33 348.14 326.93 345.01 328.41 341.26 C 328.61 337.74 326.55 333.44 329.62 330.64 C 332.93 326.86 339.84 330.33 339.96 334.99 C 339.67 338.27 337.13 340.74 335.23 343.21 C 329.07 350.38 322.60 357.27 315.84 363.88 C 314.18 365.51 312.39 367.36 312.06 369.79 C 320.10 381.28 330.53 390.82 339.33 401.71 C 343.93 407.07 351.63 409.94 353.58 417.37 C 356.58 424.82 345.25 427.77 341.45 422.62 C 336.92 416.76 333.76 409.86 328.23 404.79 C 319.27 396.11 310.60 387.00 300.38 379.78 C 291.25 389.17 282.99 399.54 272.82 407.85 C 269.82 410.34 265.47 408.10 263.90 405.05 C 261.57 401.28 265.36 395.41 269.80 396.36 C 271.91 397.13 273.65 398.61 275.47 399.87 C 278.51 396.92 281.55 393.98 284.40 390.84 C 278.75 390.48 272.18 391.91 267.89 387.16 C 259.28 382.11 259.28 370.87 260.24 362.14 C 261.79 354.85 266.36 348.68 269.82 342.22 C 247.64 319.29 226.43 295.47 204.11 272.69 C 204.53 302.28 205.34 331.88 205.07 361.49 C 215.52 364.84 225.77 370.77 231.40 380.49 C 235.14 386.50 234.91 395.52 229.06 400.08 C 222.73 405.04 213.82 403.36 206.46 403.57 C 206.22 416.34 205.03 429.08 205.45 441.86 C 206.02 450.88 204.08 459.78 202.31 468.56 C 201.97 470.25 201.04 471.78 199.78 472.95 C 193.13 473.24 188.14 467.48 183.71 463.30 C 169.94 447.11 160.61 426.70 159.38 405.33 C 159.06 399.23 160.50 393.06 163.75 387.87 C 169.44 376.22 179.06 366.07 191.76 362.38 C 193.93 332.54 192.83 302.59 192.86 272.70 C 175.32 291.23 158.58 310.52 141.46 329.44 C 136.87 334.77 131.73 339.64 127.66 345.41 C 129.92 354.52 134.29 363.31 133.90 372.97 C 133.35 382.98 130.45 393.37 123.56 400.90 C 115.99 392.55 108.66 383.97 100.59 376.09 C 94.55 383.51 87.19 389.72 81.01 397.03 C 72.73 406.43 62.49 413.69 52.70 421.40 C 50.91 420.13 49.14 418.83 47.36 417.54 C 54.40 399.77 67.45 385.24 81.19 372.28 C 84.47 369.78 87.44 366.90 89.69 363.41 C 83.31 356.01 76.90 348.63 70.51 341.24 C 83.48 330.29 102.43 330.01 117.74 335.93 C 142.42 310.27 166.48 284.01 191.01 258.21 C 148.99 211.17 105.98 165.01 64.62 117.38 C 57.81 108.65 49.59 100.82 44.47 90.90 C 52.66 95.62 58.83 102.97 65.74 109.26 C 90.50 134.18 115.07 159.29 139.03 184.98 C 157.99 203.10 175.15 223.00 193.57 241.66 C 194.74 193.13 193.32 144.57 194.31 96.03 M 287.47 332.33 C 294.22 334.14 301.03 335.77 307.87 337.25 C 309.17 335.37 310.45 333.48 311.70 331.58 C 303.89 328.23 295.20 329.49 287.47 332.33 M 281.58 336.07 C 288.09 338.76 294.29 342.14 300.87 344.65 C 301.38 342.99 301.88 341.33 302.36 339.67 C 295.78 337.01 288.61 336.37 281.58 336.07 M 297.38 354.08 C 296.94 357.26 301.10 360.00 301.90 363.03 C 309.17 362.32 314.81 356.49 316.62 349.69 C 317.08 344.91 316.38 340.10 316.02 335.34 C 309.51 341.26 302.53 346.89 297.38 354.08 M 80.69 342.97 C 81.46 344.65 82.23 346.33 83.01 348.01 C 88.28 345.93 93.43 343.31 99.08 342.46 C 104.90 342.37 110.57 343.77 116.26 344.76 C 112.57 342.75 109.01 340.31 104.96 339.14 C 96.69 338.07 88.19 339.35 80.69 342.97 M 279.70 340.75 C 285.35 343.30 290.78 346.31 295.72 350.08 C 294.44 342.56 286.24 340.44 279.70 340.75 M 87.35 351.32 C 88.35 352.65 89.37 353.98 90.38 355.31 C 96.12 352.12 101.85 348.85 108.04 346.57 C 101.00 347.18 93.31 346.92 87.35 351.32 M 264.94 359.68 C 270.38 359.62 275.84 358.16 280.05 354.65 C 274.68 355.13 268.64 355.11 264.94 359.68 M 113.46 356.92 C 117.19 362.73 122.12 367.62 126.30 373.09 C 119.34 369.34 113.61 363.77 107.33 359.05 C 109.91 367.57 117.70 372.88 122.18 380.30 C 114.58 375.72 108.51 369.11 101.20 364.13 C 106.49 373.90 114.46 381.94 121.28 390.67 C 126.99 383.90 128.00 374.80 128.29 366.29 C 123.33 363.18 118.51 359.86 113.46 356.92 M 266.24 363.19 C 265.80 364.56 264.91 367.30 264.47 368.67 C 270.63 366.11 276.47 362.74 281.54 358.39 C 276.44 359.98 271.30 361.49 266.24 363.19 M 283.70 360.59 C 277.29 364.25 271.24 368.51 264.78 372.09 C 265.34 373.52 265.92 374.96 266.49 376.40 C 272.31 371.24 278.59 366.49 283.70 360.59 M 269.00 382.10 C 274.87 384.77 282.08 386.30 288.04 383.05 C 292.52 380.60 293.39 375.02 294.52 370.56 C 291.82 368.22 289.19 365.80 286.55 363.41 C 280.33 369.27 274.15 375.25 269.00 382.10 M 183.15 372.12 C 173.98 377.77 169.25 388.10 165.82 397.88 C 163.56 411.98 166.57 426.57 172.75 439.34 C 170.72 425.29 165.63 408.37 176.63 396.85 C 193.25 396.83 210.06 398.05 226.56 395.45 C 226.43 383.53 219.00 372.44 207.83 368.22 C 199.59 366.94 190.17 366.91 183.15 372.12 M 90.76 369.98 C 91.07 372.58 91.69 377.79 92.01 380.39 C 92.63 376.97 93.06 373.49 93.52 370.07 C 92.83 370.05 91.45 370.00 90.76 369.98 M 308.18 373.25 C 307.03 373.55 305.69 375.00 306.45 376.21 C 308.17 377.47 310.99 373.11 308.18 373.25 M 84.66 373.85 C 84.33 377.89 84.08 381.93 83.80 385.99 C 84.65 385.99 86.35 385.98 87.21 385.97 C 87.45 382.16 87.61 378.33 87.76 374.52 C 86.98 374.36 85.43 374.02 84.66 373.85 M 306.54 381.34 C 309.26 379.27 311.56 376.72 313.39 373.84 C 310.55 375.77 307.99 378.16 306.54 381.34 M 314.40 378.48 C 312.66 380.07 310.94 381.69 309.24 383.34 C 311.04 381.81 312.77 380.19 314.40 378.48 M 311.27 385.40 C 313.13 383.82 314.98 382.22 316.80 380.59 C 314.81 382.02 312.95 383.61 311.27 385.40 M 75.51 396.83 C 79.04 392.28 78.34 386.32 78.35 380.92 C 74.26 385.24 75.56 391.42 75.51 396.83 M 313.69 389.27 C 315.86 387.40 317.74 385.22 319.30 382.82 C 317.10 384.66 315.13 386.78 313.69 389.27 M 316.46 390.69 C 318.36 388.79 320.25 386.86 322.05 384.86 C 319.94 386.55 318.08 388.53 316.46 390.69 M 318.73 392.87 C 320.80 391.16 322.84 389.41 324.85 387.62 C 322.60 389.11 320.54 390.87 318.73 392.87 M 321.61 394.77 C 323.53 393.61 325.37 392.32 327.10 390.88 C 325.16 392.02 323.32 393.31 321.61 394.77 M 67.58 406.14 C 71.72 402.15 70.55 396.47 69.69 391.39 C 67.27 395.90 66.73 401.08 67.58 406.14 M 323.66 398.34 C 325.91 396.84 327.84 394.91 329.34 392.66 C 327.08 394.16 325.16 396.08 323.66 398.34 M 327.03 400.32 C 328.59 398.66 329.97 396.82 331.20 394.90 C 329.65 396.57 328.24 398.38 327.03 400.32 M 328.88 403.12 C 330.39 401.81 331.81 400.39 333.12 398.88 C 331.61 400.19 330.19 401.61 328.88 403.12 M 59.62 413.56 C 60.64 409.49 60.93 405.28 61.27 401.12 C 58.20 404.66 58.05 409.33 59.62 413.56 M 177.10 405.11 C 173.97 409.76 175.08 415.72 175.11 420.98 C 176.51 438.35 183.55 454.93 193.06 469.38 C 192.34 461.82 189.84 454.55 189.30 446.96 C 189.13 438.12 189.10 429.26 189.52 420.42 C 189.85 414.42 191.32 408.48 190.52 402.44 C 186.09 402.75 179.84 400.56 177.10 405.11 M 330.81 404.89 C 332.61 403.98 334.40 403.01 336.13 401.96 C 334.31 402.85 332.53 403.82 330.81 404.89 M 333.88 408.12 C 335.39 406.81 336.81 405.39 338.12 403.88 C 336.61 405.19 335.19 406.61 333.88 408.12 M 195.59 404.80 C 197.60 407.83 200.04 410.53 202.52 413.19 C 201.46 409.52 198.76 406.77 195.59 404.80 M 338.27 407.54 C 336.89 407.27 335.69 409.69 337.37 410.10 C 338.86 410.55 339.94 407.93 338.27 407.54 M 337.27 412.75 C 338.97 418.76 343.41 424.28 350.53 423.27 C 350.68 421.44 350.97 417.78 351.12 415.95 C 348.69 414.01 346.29 412.02 343.69 410.32 C 341.38 410.58 339.35 411.81 337.27 412.75 M 193.95 412.05 C 194.89 417.02 198.23 420.85 202.58 423.23 C 200.49 418.97 198.22 414.47 193.95 412.05 M 193.60 423.44 C 193.33 429.59 197.88 433.40 202.33 436.59 C 201.24 431.20 197.51 427.05 193.60 423.44 M 194.60 438.44 C 195.20 443.43 198.23 447.57 202.15 450.54 C 202.34 445.04 198.48 441.49 194.60 438.44 M 194.91 451.38 C 195.14 455.98 198.37 459.17 201.13 462.41 C 200.08 458.23 198.03 454.36 194.91 451.38 Z" />
<path fill="#000000" opacity="1.00" d=" M 339.52 413.38 C 343.51 415.58 346.76 418.84 349.53 422.42 C 344.48 421.90 340.18 418.62 339.52 413.38 Z" />
</g>
</svg>
